{
  "accessors": [
    {
      "bufferView": 2,
      "componentType": 5126,
      "count": 25219,
      "max": [
        169.60992431640625,
        34.56317138671875,
        37.88338851928711
      ],
      "min": [
        -85.40103912353516,
        -25.52933120727539,
        -51.11027908325195
      ],
      "type": "VEC3"
    },
    {
      "bufferView": 2,
      "byteOffset": 302628,
      "componentType": 5126,
      "count": 25219,
      "max": [
        1.0,
        1.0,
        1.0
      ],
      "min": [
        -1.0,
        -1.0,
        -1.0
      ],
      "type": "VEC3"
    },
    {
      "bufferView": 3,
      "componentType": 5126,
      "count": 25219,
      "max": [
        1.0,
        1.0,
        1.0,
        1.0
      ],
      "min": [
        -1.0,
        -1.0,
        -1.0,
        -1.0
      ],
      "type": "VEC4"
    },
    {
      "bufferView": 1,
      "componentType": 5126,
      "count": 25219,
      "max": [
        0.9951880574226379,
        0.9990073442459106
      ],
      "min": [
        0.0012855030363425612,
        0.001489618793129921
      ],
      "type": "VEC2"
    },
    {
      "bufferView": 0,
      "componentType": 5125,
      "count": 116292,
      "type": "SCALAR"
    },
    {
      "bufferView": 2,
      "byteOffset": 605256,
      "componentType": 5126,
      "count": 1097,
      "max": [
        152.5018768310547,
        4.330722808837891,
        -31.8714599609375
      ],
      "min": [
        118.10618591308594,
        -29.542430877685547,
        -53.19750213623047
      ],
      "type": "VEC3"
    },
    {
      "bufferView": 2,
      "byteOffset": 618420,
      "componentType": 5126,
      "count": 1097,
      "max": [
        1.0,
        0.9987349510192871,
        1.0
      ],
      "min": [
        -1.0,
        -0.9995391964912415,
        -0.9962280988693237
      ],
      "type": "VEC3"
    },
    {
      "bufferView": 3,
      "byteOffset": 403504,
      "componentType": 5126,
      "count": 1097,
      "max": [
        0.9999927282333374,
        0.9999999403953552,
        0.9999845623970032,
        1.0
      ],
      "min": [
        -0.9958199858665466,
        -1.0,
        -0.9725533723831177,
        -1.0
      ],
      "type": "VEC4"
    },
    {
      "bufferView": 1,
      "byteOffset": 201752,
      "componentType": 5126,
      "count": 1097,
      "max": [
        0.9937752485275269,
        0.9984737038612366
      ],
      "min": [
        0.4180412292480469,
        0.06526875495910645
      ],
      "type": "VEC2"
    },
    {
      "bufferView": 0,
      "byteOffset": 465168,
      "componentType": 5125,
      "count": 3660,
      "type": "SCALAR"
    },
    {
      "bufferView": 2,
      "byteOffset": 631584,
      "componentType": 5126,
      "count": 1251,
      "max": [
        -13.780807495117188,
        4.330402374267578,
        -34.61184310913086
      ],
      "min": [
        -48.17649841308594,
        -29.54275131225586,
        -53.891639709472656
      ],
      "type": "VEC3"
    },
    {
      "bufferView": 2,
      "byteOffset": 646596,
      "componentType": 5126,
      "count": 1251,
      "max": [
        1.0,
        0.9999755620956421,
        1.0
      ],
      "min": [
        -1.0,
        -0.9999755024909973,
        -1.0
      ],
      "type": "VEC3"
    },
    {
      "bufferView": 3,
      "byteOffset": 421056,
      "componentType": 5126,
      "count": 1251,
      "max": [
        1.0,
        0.9999158382415771,
        0.9999772906303406,
        1.0
      ],
      "min": [
        -0.999996542930603,
        -1.0,
        -0.9999829530715942,
        -1.0
      ],
      "type": "VEC4"
    },
    {
      "bufferView": 1,
      "byteOffset": 210528,
      "componentType": 5126,
      "count": 1251,
      "max": [
        0.9951173663139343,
        0.967694878578186
      ],
      "min": [
        0.2229461669921875,
        0.17410460114479065
      ],
      "type": "VEC2"
    },
    {
      "bufferView": 0,
      "byteOffset": 479808,
      "componentType": 5125,
      "count": 4428,
      "type": "SCALAR"
    },
    {
      "bufferView": 2,
      "byteOffset": 661608,
      "componentType": 5126,
      "count": 1255,
      "max": [
        -13.780807495117188,
        4.3304033279418945,
        40.66474914550781
      ],
      "min": [
        -48.17649841308594,
        -29.54275131225586,
        21.284955978393555
      ],
      "type": "VEC3"
    },
    {
      "bufferView": 2,
      "byteOffset": 676668,
      "componentType": 5126,
      "count": 1255,
      "max": [
        1.0,
        0.9999755620956421,
        1.0
      ],
      "min": [
        -1.0,
        -0.9999755024909973,
        -1.0
      ],
      "type": "VEC3"
    },
    {
      "bufferView": 3,
      "byteOffset": 441072,
      "componentType": 5126,
      "count": 1255,
      "max": [
        1.0,
        1.0,
        0.9999829530715942,
        1.0
      ],
      "min": [
        -0.9958574175834656,
        -1.0,
        -0.9998592734336853,
        -1.0
      ],
      "type": "VEC4"
    },
    {
      "bufferView": 1,
      "byteOffset": 220536,
      "componentType": 5126,
      "count": 1255,
      "max": [
        0.9892794489860535,
        0.9930548667907715
      ],
      "min": [
        0.2229461669921875,
        0.12339508533477783
      ],
      "type": "VEC2"
    },
    {
      "bufferView": 0,
      "byteOffset": 497520,
      "componentType": 5125,
      "count": 4428,
      "type": "SCALAR"
    },
    {
      "bufferView": 2,
      "byteOffset": 691728,
      "componentType": 5126,
      "count": 1094,
      "max": [
        152.5018768310547,
        4.330723762512207,
        39.970611572265625
      ],
      "min": [
        118.10618591308594,
        -29.542430877685547,
        18.64456558227539
      ],
      "type": "VEC3"
    },
    {
      "bufferView": 2,
      "byteOffset": 704856,
      "componentType": 5126,
      "count": 1094,
      "max": [
        1.0,
        0.9987349510192871,
        0.996228039264679
      ],
      "min": [
        -1.0,
        -0.9995391964912415,
        -1.0
      ],
      "type": "VEC3"
    },
    {
      "bufferView": 3,
      "byteOffset": 461152,
      "componentType": 5126,
      "count": 1094,
      "max": [
        1.0,
        1.0,
        0.9751550555229187,
        1.0
      ],
      "min": [
        -0.9975813031196594,
        -0.9999999403953552,
        -0.9081399440765381,
        -1.0
      ],
      "type": "VEC4"
    },
    {
      "bufferView": 1,
      "byteOffset": 230576,
      "componentType": 5126,
      "count": 1094,
      "max": [
        0.9943444132804871,
        0.9842738509178162
      ],
      "min": [
        0.4051153063774109,
        0.003805422456935048
      ],
      "type": "VEC2"
    },
    {
      "bufferView": 0,
      "byteOffset": 515232,
      "componentType": 5125,
      "count": 3660,
      "type": "SCALAR"
    }
  ],
  "asset": {
    "extras": {
      "author": "Jan Esch (https://sketchfab.com/Njan)",
      "license": "CC-BY-4.0 (http://creativecommons.org/licenses/by/4.0/)",
      "source": "https://sketchfab.com/3d-models/red-bull-racing-but-with-detached-tyres-949c8dca6fbe4b76a4739dda69ecf0c0",
      "title": "Red Bull Racing (but with detached tyres)"
    },
    "generator": "Sketchfab-12.68.0",
    "version": "2.0"
  },
  "bufferViews": [
    {
      "buffer": 0,
      "byteLength": 529872,
      "name": "floatBufferViews",
      "target": 34963
    },
    {
      "buffer": 0,
      "byteLength": 239328,
      "byteOffset": 529872,
      "byteStride": 8,
      "name": "floatBufferViews",
      "target": 34962
    },
    {
      "buffer": 0,
      "byteLength": 717984,
      "byteOffset": 769200,
      "byteStride": 12,
      "name": "floatBufferViews",
      "target": 34962
    },
    {
      "buffer": 0,
      "byteLength": 478656,
      "byteOffset": 1487184,
      "byteStride": 16,
      "name": "floatBufferViews",
      "target": 34962
    }
  ],
  "buffers": [
    {
      "byteLength": 1965840,
      "uri": "scene.bin"
    }
  ],
  "images": [
    {
      "uri": "textures/Formula_1_Car_baseColor.png"
    },
    {
      "uri": "textures/Formula_1_Car_metallicRoughness.png"
    },
    {
      "uri": "textures/Formula_1_Car_emissive.png"
    },
    {
      "uri": "textures/Formula_1_Car_normal.png"
    }
  ],
  "materials": [
    {
      "doubleSided": true,
      "emissiveFactor": [
        1.0,
        1.0,
        1.0
      ],
      "emissiveTexture": {
        "index": 2
      },
      "name": "Formula_1_Car",
      "normalTexture": {
        "index": 3
      },
      "pbrMetallicRoughness": {
        "baseColorTexture": {
          "index": 0
        },
        "metallicRoughnessTexture": {
          "index": 1
        }
      }
    }
  ],
  "meshes": [
    {
      "name": "RedBull V.2_lp_Formula 1 Car_0",
      "primitives": [
        {
          "attributes": {
            "NORMAL": 1,
            "POSITION": 0,
            "TANGENT": 2,
            "TEXCOORD_0": 3
          },
          "indices": 4,
          "material": 0,
          "mode": 4
        }
      ]
    },
    {
      "name": "RearRightTyre_Formula 1 Car_0",
      "primitives": [
        {
          "attributes": {
            "NORMAL": 6,
            "POSITION": 5,
            "TANGENT": 7,
            "TEXCOORD_0": 8
          },
          "indices": 9,
          "material": 0,
          "mode": 4
        }
      ]
    },
    {
      "name": "FrontRightTyre_Formula 1 Car_0",
      "primitives": [
        {
          "attributes": {
            "NORMAL": 11,
            "POSITION": 10,
            "TANGENT": 12,
            "TEXCOORD_0": 13
          },
          "indices": 14,
          "material": 0,
          "mode": 4
        }
      ]
    },
    {
      "name": "FrontLeftTyre_Formula 1 Car_0",
      "primitives": [
        {
          "attributes": {
            "NORMAL": 16,
            "POSITION": 15,
            "TANGENT": 17,
            "TEXCOORD_0": 18
          },
          "indices": 19,
          "material": 0,
          "mode": 4
        }
      ]
    },
    {
      "name": "RearLeftTyre_Formula 1 Car_0",
      "primitives": [
        {
          "attributes": {
            "NORMAL": 21,
            "POSITION": 20,
            "TANGENT": 22,
            "TEXCOORD_0": 23
          },
          "indices": 24,
          "material": 0,
          "mode": 4
        }
      ]
    }
  ],
  "nodes": [
    {
      "children": [
        1
      ],
      "matrix": [
        1.0,
        0.0,
        0.0,
        0.0,
        0.0,
        2.220446049250313e-16,
        -1.0,
        0.0,
        0.0,
        1.0,
        2.220446049250313e-16,
        0.0,
        0.0,
        0.0,
        0.0,
        1.0
      ],
      "name": "Sketchfab_model"
    },
    {
      "children": [
        2
      ],
      "matrix": [
        1.0,
        0.0,
        0.0,
        0.0,
        0.0,
        0.0,
        1.0,
        0.0,
        0.0,
        -1.0,
        0.0,
        0.0,
        0.0,
        0.0,
        0.0,
        1.0
      ],
      "name": "Red Bull detached tyres.fbx"
    },
    {
      "children": [
        3,
        6,
        9,
        12,
        15
      ],
      "name": "RootNode"
    },
    {
      "children": [
        4
      ],
      "matrix": [
        3.3776623764580904e-07,
        6.617444900424222e-24,
        -0.999999999999943,
        0.0,
        4.3711388225503085e-08,
        0.999999999999999,
        1.4764231150005303e-14,
        0.0,
        0.9999999999999422,
        -4.371138822550557e-08,
        3.3776623764580904e-07,
        0.0,
        0.0,
        0.0,
        0.0,
        1.0
      ],
      "name": "RedBull V.2_lp"
    },
    {
      "children": [
        5
      ],
      "matrix": [
        0.9999999999976903,
        -1.9110453169918354e-06,
        -9.834767752789245e-07,
        0.0,
        1.9110453101880733e-06,
        0.9999999999981739,
        -6.919010426775408e-09,
        0.0,
        9.83476788499671e-07,
        6.9171309580803514e-09,
        0.9999999999995164,
        0.0,
        -43.27741622924805,
        27.92937660217285,
        6.613491058349609,
        1.0
      ],
      "name": "Object_4"
    },
    {
      "mesh": 0,
      "name": "RedBull V.2_lp_Formula 1 Car_0"
    },
    {
      "children": [
        7
      ],
      "matrix": [
        4.0133926382246443e-07,
        -3.308722450212111e-24,
        -0.9999999999999195,
        0.0,
        4.3711388225502026e-08,
        0.999999999999999,
        1.75430963719185e-14,
        0.0,
        0.9999999999999186,
        -4.3711388225505547e-08,
        4.0133926382246443e-07,
        0.0,
        -35.92115783691406,
        15.32326602935791,
        -92.02652740478516,
        1.0
      ],
      "name": "RearRightTyre"
    },
    {
      "children": [
        8
      ],
      "matrix": [
        0.9999999999976903,
        -1.9110453169918354e-06,
        -9.834767752789245e-07,
        0.0,
        1.9110453101880733e-06,
        0.9999999999981739,
        -6.919010426775408e-09,
        0.0,
        9.83476788499671e-07,
        6.9171309580803514e-09,
        0.9999999999995164,
        0.0,
        -135.303955078125,
        12.606112480163574,
        42.53461456298828,
        1.0
      ],
      "name": "Object_7"
    },
    {
      "mesh": 1,
      "name": "RearRightTyre_Formula 1 Car_0"
    },
    {
      "children": [
        10
      ],
      "matrix": [
        5.239499116793667e-07,
        1.3234889800848443e-23,
        -0.9999999999998628,
        0.0,
        1.6292068488169113e-07,
        0.9999999999999867,
        8.536227848363445e-14,
        0.0,
        0.9999999999998495,
        -1.6292068488171347e-07,
        5.239499116793667e-07,
        0.0,
        -38.00900650024414,
        15.323267936706543,
        74.25615692138672,
        1.0
      ],
      "name": "FrontRightTyre"
    },
    {
      "children": [
        11
      ],
      "matrix": [
        0.9999999999976903,
        -1.9110453169918354e-06,
        -9.834767752789245e-07,
        0.0,
        1.9110453101880733e-06,
        0.9999999999981739,
        -6.919010426775408e-09,
        0.0,
        9.83476788499671e-07,
        6.9171309580803514e-09,
        0.9999999999995164,
        0.0,
        30.978721618652344,
        12.606114387512207,
        44.622528076171875,
        1.0
      ],
      "name": "Object_10"
    },
    {
      "mesh": 2,
      "name": "FrontRightTyre_Formula 1 Car_0"
    },
    {
      "children": [
        13
      ],
      "matrix": [
        6.425284515554353e-07,
        5.293955920339377e-23,
        -0.9999999999997935,
        0.0,
        2.821299744324334e-07,
        0.9999999999999603,
        1.812765356321521e-13,
        0.0,
        0.9999999999997538,
        -2.8212997443249165e-07,
        6.425284515554353e-07,
        0.0,
        38.009220123291016,
        15.323250770568848,
        74.25604248046875,
        1.0
      ],
      "name": "FrontLeftTyre"
    },
    {
      "children": [
        14
      ],
      "matrix": [
        0.9999999999976903,
        -1.9110453169918354e-06,
        -9.834767752789245e-07,
        0.0,
        1.9110453101880733e-06,
        0.9999999999981739,
        -6.919010426775408e-09,
        0.0,
        9.83476788499671e-07,
        6.9171309580803514e-09,
        0.9999999999995164,
        0.0,
        30.97865104675293,
        12.606115341186523,
        -31.39569854736328,
        1.0
      ],
      "name": "Object_13"
    },
    {
      "mesh": 3,
      "name": "FrontLeftTyre_Formula 1 Car_0"
    },
    {
      "children": [
        16
      ],
      "matrix": [
        5.239499116793667e-07,
        1.3234889800848443e-23,
        -0.9999999999998628,
        0.0,
        1.6292068488169113e-07,
        0.9999999999999867,
        8.536227848363445e-14,
        0.0,
        0.9999999999998495,
        -1.6292068488171347e-07,
        5.239499116793667e-07,
        0.0,
        35.9209098815918,
        15.323256492614746,
        -92.0266342163086,
        1.0
      ],
      "name": "RearLeftTyre"
    },
    {
      "children": [
        17
      ],
      "matrix": [
        0.9999999999976903,
        -1.9110453169918354e-06,
        -9.834767752789245e-07,
        0.0,
        1.9110453101880733e-06,
        0.9999999999981739,
        -6.919010426775408e-09,
        0.0,
        9.83476788499671e-07,
        6.9171309580803514e-09,
        0.9999999999995164,
        0.0,
        -135.3040313720703,
        12.606114387512207,
        -29.307453155517578,
        1.0
      ],
      "name": "Object_16"
    },
    {
      "mesh": 4,
      "name": "RearLeftTyre_Formula 1 Car_0"
    }
  ],
  "samplers": [
    {
      "magFilter": 9729,
      "minFilter": 9987,
      "wrapS": 10497,
      "wrapT": 10497
    }
  ],
  "scene": 0,
  "scenes": [
    {
      "name": "Sketchfab_Scene",
      "nodes": [
        0
      ]
    }
  ],
  "textures": [
    {
      "sampler": 0,
      "source": 0
    },
    {
      "sampler": 0,
      "source": 1
    },
    {
      "sampler": 0,
      "source": 2
    },
    {
      "sampler": 0,
      "source": 3
    }
  ]
}
